# xmcd
#
# Track frame offsets:
#	150
#	22906
#	35058
#	50380
#	66654
#	93715
#	113141
#	133434
#	148245
#	166396
#	193562
#
# Disc length: 2743 seconds
#
# Revision: 0
# Processed by: cddbd v1.5.2PL0 Copyright (c) Steve Scherf et al.
# Submitted via: EasyCDDAExtractor 11.1.0.1
#
DISCID=aa0ab50b
DTITLE=Various Artist - TajMo
DYEAR=2017
DGENRE=Blues
TTITLE0=Taj Mahal And Keb' Mo' - Don't Leave Me Here
TTITLE1=Taj Mahal And Keb' Mo' - She Knows How To Rock Me
TTITLE2=Taj Mahal And Keb' Mo' - All Around The World
TTITLE3=Taj Mahal And Keb' Mo' - Om Sweet Om
TTITLE4=Taj Mahal And Keb' Mo' - Shake Me In Your Arms
TTITLE5=Taj Mahal And Keb' Mo' - That's Who I Am
TTITLE6=Taj Mahal And Keb' Mo' - Diving Duck Blues
TTITLE7=Taj Mahal And Keb' Mo' - Squeeze Box
TTITLE8=Taj Mahal And Keb' Mo' - Ain't Nobody Taklin'
TTITLE9=Taj Mahal And Keb' Mo' - Soul
TTITLE10=Taj Mahal And Keb' Mo' with Bonnie Raitt - Waiting For The World To C
TTITLE10=hange
EXTD=
EXTT0=
EXTT1=
EXTT2=
EXTT3=
EXTT4=
EXTT5=
EXTT6=
EXTT7=
EXTT8=
EXTT9=
EXTT10=
PLAYORDER=
